<mxfile host="app.diagrams.net" modified="2023-09-14T21:22:39.425Z" agent="Mozilla/5.0 (X11; Ubuntu; Linux x86_64; rv:109.0) Gecko/20100101 Firefox/117.0" version="21.7.5" etag="jSszO3pYT_GougrDgt4Q" type="github">
  <diagram name="Page-1" id="w-JzwQ_G5Ys7sobJ8YCk">
    <mxGraphModel>
      <root>
        <mxCell id="0" />
        <mxCell id="1" parent="0" />
      </root>
    </mxGraphModel>
  </diagram>
</mxfile>
